<?xml version="1.0" encoding="UTF-8"?>
<svg width="120px" height="40px" viewBox="0 0 120 40" version="1.1" xmlns="http://www.w3.org/2000/svg" xmlns:xlink="http://www.w3.org/1999/xlink" preserveAspectRatio="xMidYMid">
    <g>
		<path d="M110.13477,0 L9.53468,0 C9.16798,0 8.80568,0 8.43995,0.00213 C8.1338,0.00413 7.83009,0.00994 7.521,0.01483 C6.84951368,0.0227318036 6.17960647,0.0818062599 5.5171,0.19154 C4.85552408,0.303662628 4.21467252,0.51504574 3.61622,0.81854 C3.01849941,1.12460171 2.47234502,1.52229753 1.99757,1.9972 C1.5203025,2.47076699 1.12246318,3.01814638 0.81935,3.61829 C0.515400242,4.21723912 0.304640498,4.8590683 0.19435,5.52161 C0.0830109412,6.18331491 0.0230983806,6.85265054 0.01515,7.52361 C0.00587,7.83021 0.00489,8.13783 0,8.44447 L0,31.55873 C0.00489,31.86923 0.00587,32.17003 0.01515,32.48063 C0.023100818,33.1515562 0.0830133796,33.8208584 0.19435,34.48253 C0.304335953,35.145459 0.515108158,35.7876566 0.81935,36.38683 C1.12232555,36.9850329 1.52022081,37.5301962 1.99757,38.00113 C2.47054482,38.478144 3.01705224,38.8761104 3.61622,39.17983 C4.21466797,39.4841365 4.85545044,39.6967778 5.5171,39.81063 C6.1797191,39.9194847 6.84955741,39.9785832 7.521,39.98743 C7.83009,39.99423 8.1338,39.99813 8.43995,39.99813 C8.80567,40.00013 9.168,40.00013 9.53468,40.00013 L110.13477,40.00013 C110.49417,40.00013 110.85937,40.00013 111.21877,39.99813 C111.52347,39.99813 111.83597,39.99423 112.14067,39.98743 C112.810843,39.9790537 113.47942,39.9199515 114.14067,39.81063 C114.804454,39.6959764 115.447534,39.4833914 116.04887,39.17983 C116.647497,38.8759346 117.1935,38.4779791 117.66607,38.00113 C118.142188,37.5283518 118.540932,36.9835873 118.84767,36.38683 C119.149629,35.7872208 119.358395,35.1450745 119.46677,34.48253 C119.578285,33.8207676 119.640323,33.1516143 119.65237,32.48063 C119.65627,32.17003 119.65627,31.86923 119.65627,31.55873 C119.66407,31.19543 119.66407,30.83413 119.66407,30.46493 L119.66407,9.53626 C119.66407,9.17005 119.66407,8.80677 119.65627,8.44447 C119.65627,8.13783 119.65627,7.83021 119.65237,7.52357 C119.640326,6.85255244 119.578287,6.18336567 119.46677,5.52157 C119.358093,4.8594116 119.149339,4.21763328 118.84767,3.61825 C118.230394,2.41532608 117.251573,1.4361554 116.04887,0.81845 C115.447532,0.51569738 114.804383,0.30437041 114.14067,0.19145 C113.479535,0.0812327831 112.810888,0.0221377649 112.14067,0.01469 C111.83597,0.00981 111.52347,0.00395 111.21877,0.002 C110.85937,0 110.49417,0 110.13477,0 L110.13477,0 Z" fill="#A6A6A6"></path>
		<path d="M8.44483,39.12513 C8.14015,39.12513 7.84283,39.12123 7.54054,39.11443 C6.91432177,39.1062707 6.28956717,39.051755 5.6714,38.95133 C5.0949903,38.8520582 4.53660424,38.6673945 4.01466,38.40343 C3.4975017,38.1416527 3.02581177,37.7984029 2.61766,37.38683 C2.20360033,36.9801053 1.85887673,36.508374 1.59715,35.99033 C1.33253926,35.4689191 1.14941288,34.9100296 1.05415,34.33313 C0.951274358,33.7132449 0.895614374,33.0864432 0.88765,32.45813 C0.88131,32.24723 0.87301,31.54503 0.87301,31.54503 L0.87301,8.44447 C0.87301,8.44447 0.88185,7.75306 0.8877,7.54993 C0.895325827,6.92261205 0.950662148,6.2967831 1.05323,5.67786 C1.14866872,5.09938008 1.33193687,4.53887887 1.59669,4.01576 C1.85745482,3.49807385 2.20026458,3.02599029 2.61183,2.61781 C3.02293283,2.20575142 3.49613161,1.86073412 4.01417,1.59534 C4.53491467,1.3322236 5.09224545,1.14886255 5.66749,1.0514 C6.28768733,0.949966139 6.91461084,0.895126084 7.543,0.88734 L8.44532,0.87513 L111.21387,0.87513 L112.12697,0.88783 C112.749643,0.895229198 113.370872,0.949580006 113.98537,1.05042 C114.566438,1.14910507 115.129577,1.33374553 115.65627,1.59827 C116.694088,2.13311605 117.538542,2.97929295 118.07127,4.0182 C118.331797,4.53770756 118.512239,5.09363676 118.60647,5.66712 C118.710259,6.29112138 118.768347,6.92186834 118.78027,7.55433 C118.78317,7.83753 118.78317,8.14173 118.78317,8.44447 C118.79107,8.81947 118.79107,9.1764 118.79107,9.53626 L118.79107,30.46493 C118.79107,30.82823 118.79107,31.18273 118.78317,31.54013 C118.78317,31.86533 118.78317,32.16323 118.77927,32.46983 C118.767605,33.0910057 118.710486,33.7104942 118.60837,34.32333 C118.51506,34.9043912 118.33293,35.4676431 118.06837,35.99333 C117.804793,36.5057511 117.462049,36.9733962 117.05277,37.37903 C116.644251,37.7928146 116.171729,38.1380727 115.65337,38.40153 C115.128136,38.6675237 114.565826,38.8528703 113.98537,38.95133 C113.36725,39.052291 112.742435,39.1068102 112.11617,39.11443 C111.82327,39.12123 111.51657,39.12513 111.21877,39.12513 L110.13477,39.12713 L8.44483,39.12513 Z" fill="#000000"></path>
		<path d="M22.8550052,13.9738261 L23.13428,13.99107 C24.730392,14.0410084 26.2095126,14.8406428 27.12544,16.14875 C25.6801229,17.0373161 24.790737,18.6043391 24.76888,20.30081 C24.7709432,22.2201643 25.9203766,23.9523113 27.68812,24.69998 C27.3481437,25.8044059 26.8356761,26.8481297 26.1697,27.79249 C25.27532,29.13039 24.33757,30.43747 22.84919,30.46163 C21.40298,30.49501 20.91695,29.61053 19.25819,29.61053 C17.58389,29.61053 17.06585,30.43748 15.67879,30.49501 C14.26134,30.54751 13.17806,29.06706 12.25116,27.74171 C10.39855,25.0351 8.95596,20.11405 10.88996,16.76563 C11.7981372,15.1336555 13.4962013,14.0980684 15.36288,14.03776 C16.78161,14.00857 18.09911,14.9959 18.97138,14.9959 C19.82709,14.9959 21.45504,13.81481 23.13428,13.99107 Z M23.15177,8.7204 C23.248585,9.98463245 22.8487766,11.2368119 22.03725,12.21102 C21.2499161,13.1902832 20.0569368,13.7543368 18.80048,13.7414 C18.7205746,12.5135627 19.1320187,11.304319 19.94419,10.38001 C20.7666802,9.44317968 21.9119378,8.85062049 23.15177,8.7204 Z" fill="#FFFFFF"></path>
		<path d="M51.34719,21.34778 C53.645,21.34779 55.15969,23.16419 55.15969,25.96986 C55.15969,28.698083 53.7437115,30.4804742 51.5858249,30.5859927 L51.38137,30.59095 C50.2067553,30.6523946 49.1003324,30.0371607 48.53274,29.00695 L48.48974,29.00695 L48.48974,33.49133 L46.63134,33.49133 L46.63134,21.44251 L48.4302,21.44251 L48.4302,22.94837 L48.46438,22.94837 C49.0571883,21.9246179 50.1648043,21.3096488 51.34719,21.34778 Z M61.312,21.34779 C63.60988,21.34779 65.12453,23.16419 65.12453,25.96986 C65.12453,28.698083 63.7085515,30.4804742 61.5506649,30.5859927 L61.34621,30.59095 C60.1715953,30.6523946 59.0651724,30.0371607 58.49758,29.00695 L58.45458,29.00695 L58.45458,33.49133 L56.59618,33.49133 L56.59618,21.44251 L58.395,21.44251 L58.395,22.94837 L58.42918,22.94837 C59.0219926,21.9246185 60.1296128,21.3096531 61.312,21.34779 Z M74.65383,17.87117 C77.27783,17.87117 79.07668,19.34285 79.13723,21.48543 L77.26123,21.48543 C77.14893,20.24617 76.12451,19.49813 74.62744,19.49813 C73.13037,19.49813 72.10596,20.25497 72.10596,21.35653 C72.10596,22.23446 72.76026,22.75106 74.36084,23.14653 L75.729,23.48247 C78.27685,24.08501 79.33545,25.10847 79.33545,26.92485 C79.33545,29.24809 77.48486,30.70317 74.5415,30.70317 C71.78759,30.70317 69.92822,29.28227 69.8081,27.03617 L71.71047,27.03626 C71.84817,28.26771 73.04447,29.07626 74.67922,29.07626 C76.24563,29.07626 77.37258,28.26767 77.37258,27.15731 C77.37258,26.19344 76.69289,25.61631 75.08352,25.22079 L73.47415,24.83309 C71.19388,24.28231 70.13528,23.2159 70.13528,21.48543 C70.13528,19.34285 72.00247,17.87117 74.65383,17.87117 Z M90.35895,21.33119 C92.98395,21.33119 94.65387,23.12119 94.65387,25.96986 C94.65387,28.82631 92.99274,30.60853 90.35895,30.60853 C87.72609,30.60853 86.065,28.8263 86.065,25.96986 C86.065,23.12123 87.74273,21.33119 90.35895,21.33119 Z M105.40774,21.33118 C107.91262,21.33118 109.48782,23.05188 109.48782,25.797 L109.48782,26.43372 L103.09329,26.43372 L103.09329,26.54602 C103.033587,27.2200516 103.266332,27.8872494 103.73232,28.3778999 C104.198308,28.8685504 104.852627,29.1353633 105.52884,29.11047 C106.430682,29.1949696 107.280943,28.6771077 107.61966,27.83703 L109.3843,27.83704 C109.1343,29.48059 107.53371,30.60852 105.48586,30.60852 C102.85207,30.60852 101.21731,28.84387 101.21731,26.01282 C101.21731,23.17298 102.86086,21.33118 105.40774,21.33118 Z M83.34621,19.29993 L83.34621,21.44251 L85.06789,21.44251 L85.06789,22.91419 L83.34621,22.91419 L83.34621,27.9054 C83.34621,28.68079 83.69094,29.04212 84.44777,29.04212 C84.6521614,29.0385559 84.8562221,29.0242026 85.0591,28.99912 L85.0591,30.46201 C84.7188283,30.5255896 84.3729708,30.5543845 84.02687,30.54795 C82.19387,30.54795 81.47902,29.85947 81.47902,28.10361 L81.47902,22.91419 L80.16262,22.91419 L80.16262,21.44251 L81.479,21.44251 L81.479,19.29993 L83.34621,19.29993 Z M40.99367,18.07823 L45.47707,30.49623 L43.438,30.49623 L42.30227,27.13978 L37.56887,27.13978 L36.43215,30.49623 L34.42727,30.49623 L38.91067,18.07823 L40.99367,18.07823 Z M100.17925,21.34777 C100.393414,21.3470222 100.606987,21.3702807 100.81597,21.41711 L100.81597,23.15539 C100.545601,23.0727733 100.26356,23.0348413 99.98097,23.04309 C99.4346182,23.0209254 98.9058709,23.2386647 98.5335615,23.639136 C98.161252,24.0396072 97.9825766,24.5828007 98.04445,25.12609 L98.04445,30.49621 L96.18605,30.49621 L96.18605,21.44251 L97.95852,21.44251 L97.95852,22.98351 L98.00152,22.98351 C98.248696,21.9914984 99.1576526,21.3087616 100.17925,21.34777 Z M90.35894,22.86244 C88.85308,22.86244 87.95855,24.02455 87.95855,25.96986 C87.95855,27.93177 88.85308,29.07631 90.35894,29.07631 C91.8648,29.07631 92.76031,27.93177 92.76031,25.96986 C92.76031,24.01576 91.8648,22.86244 90.35894,22.86244 Z M50.85695,22.93177 C49.43703,22.93177 48.48195,24.16224 48.48195,25.96986 C48.48195,27.79408 49.43703,29.01576 50.85695,29.01576 C52.30227,29.01576 53.24953,27.81947 53.24953,25.96986 C53.24953,24.13686 52.30226,22.93177 50.85695,22.93177 Z M60.82179,22.93177 C59.40187,22.93177 58.44679,24.16224 58.44679,25.96986 C58.44679,27.79408 59.40187,29.01576 60.82179,29.01576 C62.26711,29.01576 63.21438,27.81947 63.21438,25.96986 C63.21438,24.13686 62.2671,22.93177 60.82179,22.93177 Z M39.96149,20.14368 L39.90973,20.14368 L38.0591,25.59095 L41.8111,25.59095 L39.96149,20.14368 Z M105.40774,22.83704 C104.796482,22.8333922 104.209091,23.0740646 103.776126,23.5055632 C103.34316,23.9370619 103.100496,24.5236329 103.102055,25.1349 L107.62844,25.1349 C107.662165,24.5292275 107.441697,23.9369531 107.02015,23.5007615 C106.598604,23.06457 106.014201,22.8240104 105.40774,22.83704 Z" fill="#FFFFFF"></path>
		<path d="M43.12795,10.10805 C44.25686,10.10805 44.89358,10.67005 44.89358,11.62123 L44.89358,14.69789 L44.03811,14.69789 L44.03811,14.06508 L43.9678,14.06508 C43.6772486,14.5272063 43.1605536,14.7972932 42.61526,14.77208 C42.2329961,14.8118418 41.8517511,14.6880407 41.5657758,14.4312824 C41.2798005,14.1745242 41.1157861,13.8087733 41.11428,13.42445 C41.11428,12.6139 41.7178,12.14662 42.78908,12.08021 L44.00881,12.0099 L44.00881,11.62123 C44.00881,11.14564 43.69436,10.87709 43.08694,10.87709 C42.59085,10.87709 42.2471,11.05922 42.14846,11.37758 L41.28811,11.37758 C41.37893,10.60414 42.10647,10.10805 43.12795,10.10805 Z M55.10158,10.10805 C56.23049,10.10805 56.86721,10.67005 56.86721,11.62123 L56.86721,14.69789 L56.01174,14.69789 L56.01174,14.06508 L55.94143,14.06508 C55.6508786,14.5272063 55.1341836,14.7972932 54.58889,14.77208 C54.2066261,14.8118418 53.8253811,14.6880407 53.5394058,14.4312824 C53.2534305,14.1745242 53.0894161,13.8087733 53.08791,13.42445 C53.08791,12.6139 53.69143,12.14662 54.76271,12.08021 L55.98244,12.0099 L55.98244,11.62123 C55.98244,11.14564 55.66799,10.87709 55.06057,10.87709 C54.56448,10.87709 54.22073,11.05922 54.12209,11.37758 L53.26174,11.37758 C53.35256,10.60414 54.0801,10.10805 55.10158,10.10805 Z M71.17433,10.10805 C72.30324,10.10805 72.93996,10.67005 72.93996,11.62123 L72.93996,14.69789 L72.08449,14.69789 L72.08449,14.06508 L72.01418,14.06508 C71.7236286,14.5272063 71.2069336,14.7972932 70.66164,14.77208 C70.2793761,14.8118418 69.8981311,14.6880407 69.6121558,14.4312824 C69.3261805,14.1745242 69.1621661,13.8087733 69.16066,13.42445 C69.16066,12.6139 69.76418,12.14662 70.83546,12.08021 L72.05519,12.0099 L72.05519,11.62123 C72.05519,11.14564 71.74074,10.87709 71.13332,10.87709 C70.63723,10.87709 70.29348,11.05922 70.19484,11.37758 L69.33449,11.37758 C69.42531,10.60414 70.15285,10.10805 71.17433,10.10805 Z M38.06936,8.73113 C39.19045,8.73113 39.86428,9.30144 39.86428,10.21941 C39.8648156,10.8411167 39.4275123,11.3772323 38.81838,11.50164 L38.81838,11.57195 C39.5805725,11.6080022 40.1759319,12.2436002 40.16213,13.00652 C40.16213,14.05681 39.39748,14.69793 38.12307,14.69793 L35.67092,14.69793 L35.67092,8.73113 L38.06936,8.73113 Z M47.18658,10.19495 L47.18658,14.69788 L46.3008,14.69788 L46.30084,10.19495 L47.18658,10.19495 Z M49.3018,10.19495 L50.26957,11.78284 L50.33988,11.78284 L51.29888,10.19495 L52.28716,10.19495 L50.80279,12.41956 L52.30379,14.69788 L51.28322,14.69788 L50.30275,13.10169 L50.23635,13.10169 L49.252,14.69788 L48.27641,14.69788 L49.76957,12.45667 L48.26371,10.19495 L49.3018,10.19495 Z M60.265357,10.1184286 L60.39651,10.12024 C60.5296146,10.1184286 60.6625294,10.1308911 60.79299,10.15735 L60.79299,11.03435 C60.6842652,11.0111178 60.5741408,10.9953747 60.4633928,10.9872047 L60.2969,10.98064 C60.0005123,10.9540236 59.7066665,11.0538081 59.4877754,11.2554037 C59.2688842,11.4569993 59.1453045,11.7416576 59.14749,12.03923 L59.14749,14.69792 L58.25881,14.69792 L58.25881,10.19495 L59.11428,10.19495 L59.11428,10.88538 L59.18069,10.88538 C59.3607911,10.4346442 59.7884027,10.1374235 60.265357,10.1184286 L60.265357,10.1184286 Z M67.6658808,10.5707321 C67.9690857,10.8965442 68.1076831,11.3425538 68.04254,11.78283 L68.04254,14.69783 L67.15387,14.69783 L67.15387,12.00599 C67.15387,11.28236 66.83942,10.92249 66.18219,10.92249 C65.8811558,10.9084691 65.5890102,11.0266126 65.3823446,11.2459468 C65.175679,11.465281 65.075105,11.763931 65.10699,12.0636 L65.10699,14.69788 L64.21783,14.69788 L64.21779,10.19495 L65.07379,10.19495 L65.07379,10.91028 L65.1402,10.91028 C65.3711349,10.3836079 65.9107629,10.0614375 66.48395,10.10803 C66.9277668,10.0746618 67.3626759,10.2449199 67.6658808,10.5707321 Z M44.00881,12.66322 L42.9092,12.73353 C42.28908,12.77503 42.00783,12.98597 42.00783,13.38294 C42.00783,13.7544375 42.3032381,13.9835667 42.7248446,14.0191751 L42.84283,14.02405 C43.1290161,14.0530199 43.4147064,13.9646051 43.6345004,13.7790456 C43.8542944,13.5934861 43.9893716,13.3266711 44.00881,13.03968 L44.00881,12.66322 Z M55.98244,12.66322 L54.88283,12.73353 C54.26271,12.77503 53.98146,12.98597 53.98146,13.38294 C53.98146,13.7544375 54.2768681,13.9835667 54.6984746,14.0191751 L54.81646,14.02405 C55.1026461,14.0530199 55.3883364,13.9646051 55.6081304,13.7790456 C55.8279244,13.5934861 55.9630016,13.3266711 55.98244,13.03968 L55.98244,12.66322 Z M72.0552,12.66322 L70.95558,12.73353 C70.33546,12.77503 70.05421,12.98597 70.05421,13.38294 C70.05421,13.7544375 70.3496181,13.9835667 70.7712246,14.0191751 L70.88921,14.02405 C71.1753977,14.0530227 71.4610906,13.9646093 71.6808869,13.7790495 C71.9006831,13.5934897 72.0357617,13.326673 72.0552,13.03968 L72.0552,12.66322 Z M37.88381,11.98939 L36.59768,11.98939 L36.59768,13.91224 L37.93752,13.91224 C38.77252,13.91224 39.21486,13.57288 39.21486,12.94056 C39.21486,12.31605 38.75586,11.98939 37.88381,11.98939 Z M37.85452,9.51673 L36.59768,9.51673 L36.59768,11.25745 L37.69729,11.25745 C38.51663,11.25745 38.94241,10.95569 38.94241,10.38929 C38.94241,9.839 38.54104,9.51673 37.85452,9.51673 Z M47.1383326,8.41000013 C47.3101174,8.57172034 47.3658464,8.82188263 47.2789525,9.04122914 C47.1920586,9.26057566 46.9801309,9.40470597 46.7442,9.40491 C46.5952821,9.41250359 46.449712,9.35901293 46.3411418,9.25680369 C46.2325716,9.15459446 46.1704002,9.01251484 46.169,8.86341 C46.1549767,8.62789611 46.2860651,8.4076628 46.4997727,8.3077001 C46.7134802,8.2077374 46.9665478,8.24827991 47.1383326,8.41000013 Z" fill="#FFFFFF"></path>
	</g>
</svg>
