<?xml version="1.0" encoding="UTF-8"?>
<svg width="128px" height="167px" viewBox="0 0 128 167" version="1.1" xmlns="http://www.w3.org/2000/svg" xmlns:xlink="http://www.w3.org/1999/xlink" preserveAspectRatio="xMidYMid">
		<g fill="#515251">
				<path d="M86.4255439,165.32 C86.6714386,165.32 86.8510877,165.499649 86.8510877,165.746667 L86.8510877,166.094737 C86.8510877,166.341754 86.6714386,166.521404 86.4255439,166.521404 C86.1796491,166.521404 86,166.341754 86,166.094737 L86,165.746667 C86,165.499649 86.1796491,165.32 86.4255439,165.32 M87.7549474,163.209123 L87.7549474,163.175439 C87.7549474,161.334035 89.2235789,159.739649 91.1054035,159.739649 C92.2394386,159.739649 92.9894737,160.222456 93.5834386,160.78386 C93.6339649,160.828772 93.6732632,160.918596 93.6732632,161.008421 C93.6732632,161.199298 93.5306667,161.334035 93.3510175,161.334035 C93.2746667,161.334035 93.1825965,161.311579 93.1298246,161.255439 C92.6009825,160.750175 91.9823158,160.334737 91.0941754,160.334737 C89.5985965,160.334737 88.4387368,161.581053 88.4387368,163.152982 L88.4387368,163.175439 C88.4387368,164.758596 89.6356491,166.027368 91.1447018,166.027368 C91.9957895,166.027368 92.6795789,165.61193 93.2084211,165.084211 C93.261193,165.039298 93.3240702,164.983158 93.4150175,164.983158 C93.5699649,164.983158 93.7237895,165.140351 93.7237895,165.297544 C93.7237895,165.353684 93.6968421,165.432281 93.6474386,165.488421 C92.9894737,166.162105 92.2282105,166.622456 91.1054035,166.622456 C89.2101053,166.622456 87.7549474,165.050526 87.7549474,163.209123 M100.348351,163.209123 L100.348351,163.175439 C100.348351,161.592281 99.1626667,160.334737 97.6401404,160.334737 C96.0794386,160.334737 94.9588772,161.603509 94.9588772,163.152982 L94.9588772,163.175439 C94.9588772,164.758596 96.1445614,166.027368 97.6648421,166.027368 C99.2255439,166.027368 100.348351,164.747368 100.348351,163.209123 M94.2739649,163.209123 L94.2739649,163.175439 C94.2739649,161.334035 95.7066667,159.739649 97.6648421,159.739649 C99.6117895,159.739649 101.033263,161.311579 101.033263,163.152982 L101.033263,163.175439 C101.033263,165.02807 99.6005614,166.622456 97.6401404,166.622456 C95.6954386,166.622456 94.2739649,165.050526 94.2739649,163.209123 M102.331228,160.166316 C102.331228,159.975439 102.460351,159.840702 102.64,159.840702 C102.819649,159.840702 102.962246,159.964211 102.962246,160.166316 L102.962246,161.064561 C103.387789,160.379649 103.980632,159.739649 105.156211,159.739649 C106.302596,159.739649 107.011088,160.390877 107.372632,161.154386 C107.798175,160.424561 108.508912,159.739649 109.745123,159.739649 C111.306947,159.739649 112.273684,160.828772 112.273684,162.479298 L112.273684,166.195789 C112.273684,166.386667 112.144561,166.521404 111.964912,166.521404 C111.783018,166.521404 111.642667,166.386667 111.642667,166.195789 L111.642667,162.557895 C111.642667,161.143158 110.908351,160.312281 109.693474,160.312281 C108.585263,160.312281 107.618526,161.165614 107.618526,162.636491 L107.618526,166.195789 C107.618526,166.386667 107.489404,166.521404 107.309754,166.521404 C107.128982,166.521404 106.986386,166.386667 106.986386,166.195789 L106.986386,162.524211 C106.986386,161.154386 106.238596,160.312281 105.065263,160.312281 C103.893053,160.312281 102.962246,161.345263 102.962246,162.670175 L102.962246,166.195789 C102.962246,166.386667 102.835368,166.521404 102.653474,166.521404 C102.473825,166.521404 102.331228,166.386667 102.331228,166.195789 L102.331228,160.166316 M114.228491,165.32 C114.471018,165.32 114.654035,165.499649 114.654035,165.746667 L114.654035,166.094737 C114.654035,166.341754 114.471018,166.521404 114.228491,166.521404 C113.982596,166.521404 113.800702,166.341754 113.800702,166.094737 L113.800702,165.746667 C113.800702,165.499649 113.982596,165.32 114.228491,165.32 M122.118456,163.209123 L122.118456,163.175439 C122.118456,161.446316 120.919298,160.345965 119.537123,160.345965 C118.170667,160.345965 116.856982,161.491228 116.856982,163.164211 L116.856982,163.186667 C116.856982,164.882105 118.170667,166.01614 119.537123,166.01614 C120.969825,166.01614 122.118456,164.97193 122.118456,163.209123 M116.263018,157.325614 C116.263018,157.134737 116.39214,157 116.572912,157 C116.754807,157 116.895158,157.134737 116.895158,157.325614 L116.895158,161.356491 C117.463298,160.49193 118.303158,159.739649 119.603368,159.739649 C121.188772,159.739649 122.802246,161.008421 122.802246,163.152982 L122.802246,163.175439 C122.802246,165.32 121.188772,166.622456 119.603368,166.622456 C118.287439,166.622456 117.436351,165.870175 116.895158,165.050526 L116.895158,166.195789 C116.895158,166.375439 116.767158,166.521404 116.585263,166.521404 C116.405614,166.521404 116.263018,166.375439 116.263018,166.195789 L116.263018,157.325614 M124.127158,160.166316 C124.127158,159.975439 124.254035,159.840702 124.43593,159.840702 C124.616702,159.840702 124.759298,159.964211 124.759298,160.166316 L124.759298,161.760702 C125.32407,160.480702 126.471579,159.784561 127.401263,159.784561 C127.594386,159.784561 127.739228,159.941754 127.739228,160.132632 C127.739228,160.312281 127.610105,160.469474 127.401263,160.480702 C126.008982,160.615439 124.759298,161.659649 124.759298,163.770526 L124.759298,166.195789 C124.759298,166.375439 124.629053,166.521404 124.449404,166.521404 C124.269754,166.521404 124.127158,166.386667 124.127158,166.195789 L124.127158,160.166316"></path>
				<path d="M13.133913,144.091228 C12.9146943,140.924912 11.085235,137.994386 7.45230633,137.994386 C4.31431472,137.994386 1.89273891,140.610526 1.61476054,144.091228 L13.133913,144.091228 Z M7.76192452,153.073684 C3.6012889,153.073684 0,149.772632 0,144.865965 L0,144.809825 C0,140.24 3.22839108,136.602105 7.51219598,136.602105 C11.95307,136.602105 14.7780534,140.24 14.7780534,144.742456 C14.7780534,145.112982 14.4051556,145.461053 14.0311278,145.461053 L1.61476054,145.461053 C1.89273891,149.368421 4.71998234,151.658947 7.82294416,151.658947 C10.0897109,151.658947 11.6750916,150.727018 12.9463341,149.49193 C13.0695034,149.368421 13.2265725,149.278596 13.4424012,149.278596 C13.8458089,149.278596 14.1881969,149.592982 14.1881969,149.985965 C14.1881969,150.143158 14.1260472,150.334035 13.9384683,150.513684 C12.3869874,152.05193 10.6174178,153.073684 7.76192452,153.073684 Z M30.9222688,152.05193 C30.9222688,152.489825 30.6126506,152.826667 30.1764732,152.826667 C29.7414257,152.826667 29.3990377,152.523509 29.3990377,152.05193 L29.3990377,149.772632 C28.3436239,151.625263 26.5763143,153.073684 23.6869212,153.073684 C19.6833547,153.073684 17.3555683,150.356491 17.3555683,146.595088 L17.3555683,137.62386 C17.3555683,137.152281 17.6640565,136.849123 18.099104,136.849123 C18.5341514,136.849123 18.8765394,137.152281 18.8765394,137.62386 L18.8765394,146.314386 C18.8765394,149.559298 20.7082587,151.692632 23.9038799,151.692632 C27.0091017,151.692632 29.3990377,149.345965 29.3990377,146.067368 L29.3990377,137.62386 C29.3990377,137.152281 29.7097859,136.849123 30.1448334,136.849123 C30.5798808,136.849123 30.9222688,137.152281 30.9222688,137.62386 L30.9222688,152.05193 M34.3676186,138.331228 C34.3676186,137.028772 35.4241624,135.984561 36.7259148,135.984561 C38.0310572,135.984561 39.085341,137.028772 39.085341,138.331228 L39.085341,139.072281 C39.770117,137.466667 40.8865504,135.984561 42.2832222,135.984561 C43.7420437,135.984561 44.5816288,136.938947 44.5816288,138.26386 C44.5816288,139.498947 43.7736835,140.24 42.8109292,140.453333 C40.4209932,141.014737 39.085341,142.833684 39.085341,146.168421 L39.085341,150.547368 C39.085341,151.838596 38.0310572,152.894035 36.7259148,152.894035 C35.4241624,152.894035 34.3676186,151.838596 34.3676186,150.547368 L34.3676186,138.331228 M56.2544604,143.136842 C55.976482,141.048421 54.7334893,139.622456 52.7469609,139.622456 C50.7898124,139.622456 49.5185699,141.014737 49.145672,143.136842 L56.2544604,143.136842 Z M53.2125182,153.073684 C48.2134275,153.073684 44.5194791,149.592982 44.5194791,144.529123 L44.5194791,144.461754 C44.5194791,139.745965 47.9049393,135.861053 52.7469609,135.861053 C58.3042684,135.861053 60.756354,140.397193 60.756354,143.821754 C60.756354,145.180351 59.7947296,146.067368 58.5517369,146.067368 L49.2089517,146.067368 C49.672249,148.200702 51.1627102,149.312281 53.2746678,149.312281 C54.5786802,149.312281 55.6646038,148.90807 56.6273582,148.200702 C56.9697462,147.953684 57.2804944,147.830175 57.7765615,147.830175 C58.8319753,147.830175 59.6082807,148.627368 59.6082807,149.682807 C59.6082807,150.300351 59.3280424,150.760702 58.9867844,151.075088 C57.5279629,152.310175 55.634094,153.073684 53.2125182,153.073684 Z M61.9970867,144.529123 L61.9970867,144.461754 C61.9970867,139.745965 65.6300154,135.861053 70.7206356,135.861053 C73.2348709,135.861053 75.0044405,136.545965 76.4022423,137.713684 C76.7129905,137.960702 77.148038,138.510877 77.148038,139.319298 C77.148038,140.487018 76.1852836,141.418947 75.0044405,141.418947 C74.3852041,141.418947 73.9196469,141.160702 73.6382785,140.947368 C72.8020834,140.307368 71.9331185,139.903158 70.6901258,139.903158 C68.3306996,139.903158 66.6537895,141.969123 66.6537895,144.405614 L66.6537895,144.461754 C66.6537895,146.999298 68.3001898,149.031579 70.8777047,149.031579 C72.1184374,149.031579 73.0800618,148.604912 73.9829265,147.897544 C74.2303951,147.706667 74.6936923,147.459649 75.2541691,147.459649 C76.3706025,147.459649 77.2406974,148.357895 77.2406974,149.469474 C77.2406974,150.075789 76.962719,150.581053 76.5570514,150.940351 C75.1615096,152.209123 73.39194,153.073684 70.659616,153.073684 C65.6605253,153.073684 61.9970867,149.244912 61.9970867,144.529123 M79.195586,138.331228 C79.195586,137.028772 80.2532598,135.984561 81.5572721,135.984561 C82.8624145,135.984561 83.9166983,137.028772 83.9166983,138.331228 L83.9166983,150.547368 C83.9166983,151.838596 82.8624145,152.894035 81.5572721,152.894035 C80.2532598,152.894035 79.195586,151.838596 79.195586,150.547368 L79.195586,138.331228 Z M78.9176076,132.223158 C78.9176076,130.864561 80.0679409,130.033684 81.5572721,130.033684 C83.0477334,130.033684 84.1946767,130.864561 84.1946767,132.223158 L84.1946767,132.279298 C84.1946767,133.637895 83.0477334,134.502456 81.5572721,134.502456 C80.0679409,134.502456 78.9176076,133.637895 78.9176076,132.279298 L78.9176076,132.223158 Z M85.9958861,144.529123 L85.9958861,144.461754 C85.9958861,139.745965 89.6288148,135.861053 94.720565,135.861053 C97.2336703,135.861053 99.0043699,136.545965 100.401042,137.713684 C100.71066,137.960702 101.144577,138.510877 101.144577,139.319298 C101.144577,140.487018 100.185213,141.418947 99.0043699,141.418947 C98.3840035,141.418947 97.9184463,141.160702 97.6382079,140.947368 C96.7997528,140.307368 95.9319179,139.903158 94.6866652,139.903158 C92.328369,139.903158 90.6525888,141.969123 90.6525888,144.405614 L90.6525888,144.461754 C90.6525888,146.999298 92.2989892,149.031579 94.8742441,149.031579 C96.1149768,149.031579 97.0777312,148.604912 97.9794659,147.897544 C98.2269345,147.706667 98.6924917,147.459649 99.2507085,147.459649 C100.370532,147.459649 101.237237,148.357895 101.237237,149.469474 C101.237237,150.075789 100.959258,150.581053 100.555851,150.940351 C99.158049,152.209123 97.3907394,153.073684 94.6561554,153.073684 C89.6570647,153.073684 85.9958861,149.244912 85.9958861,144.529123 M103.195515,132.346667 C103.195515,131.044211 104.249799,130 105.554942,130 C106.858954,130 107.914368,131.044211 107.914368,132.346667 L107.914368,150.547368 C107.914368,151.838596 106.858954,152.894035 105.554942,152.894035 C104.249799,152.894035 103.195515,151.838596 103.195515,150.547368 L103.195515,132.346667 M123.343297,144.529123 L123.343297,144.461754 C123.343297,142.025263 121.572598,139.903158 118.966833,139.903158 C116.265019,139.903158 114.651388,141.969123 114.651388,144.405614 L114.651388,144.461754 C114.651388,146.898246 116.419828,149.031579 119.027853,149.031579 C121.729667,149.031579 123.343297,146.965614 123.343297,144.529123 M109.992426,144.529123 L109.992426,144.461754 C109.992426,139.712281 113.844573,135.861053 119.027853,135.861053 C124.181752,135.861053 128,139.65614 128,144.405614 L128,144.461754 C128,149.222456 124.151243,153.073684 118.966833,153.073684 C113.812933,153.073684 109.992426,149.278596 109.992426,144.529123"></path>
				<path d="M59.6327017,56.2553595 C59.6327017,61.2683416 55.579218,65.3286303 50.5685042,65.3286303 C45.5645954,65.3286303 41.506575,61.2683416 41.506575,56.2553595 C41.506575,51.253719 45.5645954,47.1934303 50.5685042,47.1934303 C55.579218,47.1934303 59.6327017,51.253719 59.6327017,56.2553595 Z M86.7833304,56.2553595 C86.7833304,61.2683416 82.7230417,65.3286303 77.7191329,65.3286303 C72.7129557,65.3286303 68.652667,61.2683416 68.652667,56.2553595 C68.652667,51.253719 72.7129557,47.1934303 77.7191329,47.1934303 C82.7230417,47.1934303 86.7833304,51.253719 86.7833304,56.2553595 Z M127.475816,73.8121384 C128.512437,75.1731291 127.963504,76.4887533 126.253192,76.4887533 L121.225466,76.7042435 L121.130197,76.7042435 L121.227735,76.5000949 C117.909186,88.0344904 111.072476,98.1285041 101.589774,105.704685 C90.5407986,114.539783 76.6654993,119.042393 62.5214043,118.395923 C48.3705044,117.749452 34.9670151,111.987925 24.7731954,102.177451 C14.6780475,92.4577099 8.41408817,79.4602495 7.13362284,65.5668036 C6.81946084,62.1756687 9.31574446,59.1701477 12.7091477,58.8639248 C16.1048193,58.5463604 19.1103403,61.0415098 19.4210998,64.4439864 C21.514757,87.1271633 40.2828176,105.02419 63.0884837,106.067616 C83.1801077,106.997626 101.343662,94.5899285 108.224603,76.2959463 L103.472478,76.2959463 C101.762166,76.2959463 101.220038,75.1844707 102.263464,73.8348216 L113.052718,59.850643 C114.098412,58.4896524 115.797382,58.500994 116.834003,59.8619846 L127.475816,73.8121384 Z M122.392516,47.1140392 C123.045791,50.4598078 120.819437,53.7148437 117.419229,54.3613142 C114.019021,55.0077848 110.727692,52.8415414 110.072148,49.4957728 C106.042482,28.9334729 88.3632136,13.7130611 67.0863937,12.4087785 C47.861267,11.2405948 29.3710754,21.13046 20.6788819,37.0086839 L24.9195019,37.0086839 C26.6558991,37.0086839 27.2161735,38.1315011 26.1614058,39.4924917 L15.3472012,53.4539871 C14.2924335,54.8149778 12.5673779,54.8149778 11.5035369,53.4653287 L0.53848914,39.4698086 C-0.519681065,38.1201595 0.0292518173,37.0086839 1.76791733,37.0086839 L6.69016673,37.0086839 C16.2726748,15.4596658 41.820737,-1.48466742 67.8621583,0.103154965 C94.8471998,1.74768529 117.275191,21.0170441 122.392516,47.1140392 Z"></path>
		</g>
</svg>
