<?xml version="1.0" encoding="UTF-8"?>
<svg width="135px" height="40px" viewBox="0 0 135 40" version="1.1" xmlns="http://www.w3.org/2000/svg" xmlns:xlink="http://www.w3.org/1999/xlink" preserveAspectRatio="xMidYMid">
    <defs>
        <linearGradient x1="61.026375%" y1="4.94732642%" x2="26.4997245%" y2="71.9162011%" id="linearGradient-1">
            <stop stop-color="#00A0FF" offset="0%"></stop>
            <stop stop-color="#00A1FF" offset="0.657445%"></stop>
            <stop stop-color="#00BEFF" offset="26.01%"></stop>
            <stop stop-color="#00D2FF" offset="51.22%"></stop>
            <stop stop-color="#00DFFF" offset="76.04%"></stop>
            <stop stop-color="#00E3FF" offset="100%"></stop>
        </linearGradient>
        <linearGradient x1="107.621063%" y1="50.0175234%" x2="-130.537402%" y2="50.0175234%" id="linearGradient-2">
            <stop stop-color="#FFE000" offset="0%"></stop>
            <stop stop-color="#FFBD00" offset="40.87%"></stop>
            <stop stop-color="#FFA500" offset="77.54%"></stop>
            <stop stop-color="#FF9C00" offset="100%"></stop>
        </linearGradient>
        <linearGradient x1="86.2523981%" y1="30.8970179%" x2="-50.1882494%" y2="136.081257%" id="linearGradient-3">
            <stop stop-color="#FF3A44" offset="0%"></stop>
            <stop stop-color="#C31162" offset="100%"></stop>
        </linearGradient>
        <linearGradient x1="-18.7705213%" y1="-11.8314017%" x2="42.1198322%" y2="35.0813417%" id="linearGradient-4">
            <stop stop-color="#32A071" offset="0%"></stop>
            <stop stop-color="#2DA771" offset="6.85%"></stop>
            <stop stop-color="#15CF74" offset="47.62%"></stop>
            <stop stop-color="#06E775" offset="80.09%"></stop>
            <stop stop-color="#00F076" offset="100%"></stop>
        </linearGradient>
    </defs>
    <g>
        <g>
            <path d="M130,40 L5,40 C2.25,40 0,37.75 0,35 L0,5 C0,2.25 2.25,0 5,0 L130,0 C132.75,0 135,2.25 135,5 L135,35 C135,37.75 132.75,40 130,40 Z" fill="#000000" fill-rule="nonzero"></path>
            <path d="M130,0.8 C132.32,0.8 134.2,2.68 134.2,5 L134.2,35 C134.2,37.32 132.32,39.2 130,39.2 L5,39.2 C2.68,39.2 0.8,37.32 0.8,35 L0.8,5 C0.8,2.68 2.68,0.8 5,0.8 L130,0.8 M130,0 L5,0 C2.25,0 0,2.25 0,5 L0,35 C0,37.75 2.25,40 5,40 L130,40 C132.75,40 135,37.75 135,35 L135,5 C135,2.25 132.75,0 130,0 L130,0 Z" fill="#A6A6A6" fill-rule="nonzero"></path>
            <path d="M68.14,21.75 C65.79,21.75 63.87,23.54 63.87,26 C63.87,28.45 65.79,30.25 68.14,30.25 C70.49,30.25 72.41,28.45 72.41,26 C72.41,23.54 70.49,21.75 68.14,21.75 Z M68.14,28.58 C66.85,28.58 65.74,27.52 65.74,26 C65.74,24.47 66.85,23.42 68.14,23.42 C69.43,23.42 70.54,24.47 70.54,26 C70.54,27.52 69.42,28.58 68.14,28.58 Z M58.82,21.75 C56.47,21.75 54.55,23.54 54.55,26 C54.55,28.45 56.47,30.25 58.82,30.25 C61.17,30.25 63.09,28.45 63.09,26 C63.09,23.54 61.17,21.75 58.82,21.75 Z M58.82,28.58 C57.53,28.58 56.42,27.52 56.42,26 C56.42,24.47 57.53,23.42 58.82,23.42 C60.11,23.42 61.22,24.47 61.22,26 C61.22,27.52 60.11,28.58 58.82,28.58 Z M47.74,23.06 L47.74,24.86 L52.06,24.86 C51.93,25.87 51.59,26.62 51.08,27.13 C50.45,27.76 49.47,28.45 47.75,28.45 C45.09,28.45 43.01,26.31 43.01,23.65 C43.01,20.99 45.09,18.85 47.75,18.85 C49.18,18.85 50.23,19.41 51,20.14 L52.27,18.87 C51.19,17.84 49.76,17.05 47.74,17.05 C44.1,17.05 41.04,20.01 41.04,23.66 C41.04,27.3 44.1,30.27 47.74,30.27 C49.71,30.27 51.19,29.63 52.35,28.42 C53.54,27.23 53.91,25.55 53.91,24.2 C53.91,23.78 53.88,23.39 53.81,23.07 L47.74,23.07 L47.74,23.06 Z M93.05,24.46 C92.7,23.51 91.62,21.75 89.41,21.75 C87.22,21.75 85.4,23.47 85.4,26 C85.4,28.38 87.2,30.25 89.62,30.25 C91.57,30.25 92.7,29.06 93.16,28.37 L91.71,27.4 C91.23,28.11 90.57,28.58 89.62,28.58 C88.67,28.58 87.99,28.14 87.56,27.29 L93.25,24.94 L93.05,24.46 Z M87.25,25.88 C87.2,24.24 88.52,23.4 89.47,23.4 C90.21,23.4 90.84,23.77 91.05,24.3 L87.25,25.88 Z M82.63,30 L84.5,30 L84.5,17.5 L82.63,17.5 L82.63,30 Z M79.57,22.7 L79.5,22.7 C79.08,22.2 78.28,21.75 77.26,21.75 C75.13,21.75 73.18,23.62 73.18,26.02 C73.18,28.4 75.13,30.26 77.26,30.26 C78.27,30.26 79.08,29.81 79.5,29.29 L79.56,29.29 L79.56,29.9 C79.56,31.53 78.69,32.4 77.29,32.4 C76.15,32.4 75.44,31.58 75.15,30.89 L73.52,31.57 C73.99,32.7 75.23,34.08 77.29,34.08 C79.48,34.08 81.33,32.79 81.33,29.65 L81.33,22.01 L79.56,22.01 L79.56,22.7 L79.57,22.7 Z M77.42,28.58 C76.13,28.58 75.05,27.5 75.05,26.02 C75.05,24.52 76.13,23.43 77.42,23.43 C78.69,23.43 79.69,24.53 79.69,26.02 C79.7,27.5 78.7,28.58 77.42,28.58 Z M101.81,17.5 L97.34,17.5 L97.34,30 L99.21,30 L99.21,25.26 L101.82,25.26 C103.89,25.26 105.92,23.76 105.92,21.38 C105.92,19 103.87,17.5 101.81,17.5 Z M101.85,23.52 L99.2,23.52 L99.2,19.23 L101.85,19.23 C103.25,19.23 104.04,20.39 104.04,21.37 C104.04,22.35 103.25,23.52 101.85,23.52 Z M113.39,21.73 C112.04,21.73 110.64,22.33 110.06,23.64 L111.72,24.33 C112.07,23.64 112.73,23.41 113.42,23.41 C114.39,23.41 115.37,23.99 115.38,25.02 L115.38,25.15 C115.04,24.96 114.32,24.67 113.43,24.67 C111.64,24.67 109.83,25.65 109.83,27.48 C109.83,29.15 111.29,30.23 112.93,30.23 C114.18,30.23 114.88,29.67 115.31,29.01 L115.37,29.01 L115.37,29.98 L117.170045,29.98 L117.170045,25.19 C117.18,22.97 115.52,21.73 113.39,21.73 Z M113.16,28.58 C112.55,28.58 111.7,28.27 111.7,27.52 C111.7,26.56 112.76,26.19 113.68,26.19 C114.5,26.19 114.89,26.37 115.38,26.61 C115.24,27.76 114.24,28.58 113.16,28.58 Z M123.74,22 L121.6,27.42 L121.54,27.42 L119.32,22 L117.31,22 L120.64,29.58 L118.74,33.79 L120.69,33.79 L125.82,22 L123.74,22 Z M106.94,30 L108.81,30 L108.81,17.5 L106.94,17.5 L106.94,30 Z" fill="#FFFFFF" fill-rule="nonzero"></path>
            <g transform="translate(9.000000, 7.141126)" fill-rule="nonzero">
                <path d="M1.44,0.398874128 C1.15,0.708874128 0.98,1.18887413 0.98,1.79887413 L0.98,23.9188741 C0.98,24.5388741 1.15,25.0188741 1.44,25.3188741 L1.51,25.3888741 L13.9,13.0088741 L13.9,12.8588741 L13.9,12.7088741 L1.51,0.328874128 L1.44,0.398874128 Z" fill="url(#linearGradient-1)"></path>
                <path d="M18.03,17.1388741 L13.9,13.0088741 L13.9,12.8588741 L13.9,12.7088741 L18.03,8.57887413 L18.12,8.62887413 L23.01,11.4088741 C24.41,12.1988741 24.41,13.4988741 23.01,14.2988741 L18.12,17.0788741 L18.03,17.1388741 Z" fill="url(#linearGradient-2)"></path>
                <path d="M18.12,17.0888741 L13.9,12.8588741 L1.44,25.3188741 C1.9,25.8088741 2.66,25.8688741 3.52,25.3788741 L18.12,17.0888741" fill="url(#linearGradient-3)"></path>
                <path d="M18.12,8.63887413 L3.51,0.338874128 C2.65,-0.151125872 1.89,-0.0911258722 1.43,0.398874128 L13.9,12.8588741 L18.12,8.63887413 Z" fill="url(#linearGradient-4)"></path>
                <g transform="translate(0.000000, 16.858874)" fill="#000000">
                    <path d="M18.03,0.13 L3.51,8.38 C2.7,8.84 1.97,8.81 1.51,8.39 L1.51,8.39 L1.44,8.46 L1.44,8.46 L1.51,8.53 L1.51,8.53 C1.98,8.95 2.7,8.98 3.51,8.52 L18.12,0.22 L18.03,0.13 Z" opacity="0.2"></path>
                    <path d="M1.44,8.32 C1.15,8.01 0.98,7.53 0.98,6.92 L0.98,7.07 C0.98,7.69 1.15,8.17 1.44,8.47 L1.51,8.4 L1.44,8.32 Z" opacity="0.12"></path>
                </g>
                <path d="M23.01,14.1588741 L18.02,16.9888741 L18.11,17.0788741 L23,14.2988741 C23.7,13.8988741 24.05,13.3788741 24.05,12.8588741 L24.05,12.8588741 C24,13.3288741 23.65,13.7988741 23.01,14.1588741 Z" fill="#000000" opacity="0.12"></path>
                <path d="M3.51,0.478874128 L23.01,11.5588741 C23.64,11.9188741 24,12.3788741 24.06,12.8588741 L24.06,12.8588741 C24.06,12.3388741 23.71,11.8088741 23.01,11.4188741 L3.51,0.338874128 C2.11,-0.451125872 0.97,0.208874128 0.97,1.80887413 L0.97,1.95887413 C0.97,0.348874128 2.12,-0.311125872 3.51,0.478874128 Z" fill="#FFFFFF" opacity="0.25"></path>
            </g>
            <path d="M50.854,7.0396853 C51.379,7.03869643 51.817,7.17169643 52.157,7.44269643 C52.439,7.668125 52.6423878,7.91632908 52.7589767,8.18730867 L52.81,8.32469643 L52.837,8.41169643 L51.944,8.78369643 L51.914,8.67369643 C51.8788,8.54169643 51.80264,8.41417643 51.67784,8.29011243 L51.575,8.19769643 L51.4815972,8.13105291 C51.3184722,8.02977976 51.1175,7.97769643 50.87,7.97769643 C50.6484,7.97769643 50.45816,8.02569643 50.293648,8.12169643 L50.175,8.20269643 C49.984,8.35469643 49.9,8.52369643 49.898,8.73969643 C49.8996667,8.9013631 49.9527222,9.03455754 50.0710556,9.15606217 L50.15,9.22769643 L50.2464074,9.29815013 C50.3868148,9.39129828 50.5692963,9.48103902 50.7932593,9.56440939 L50.969,9.62569643 C51.267,9.72169643 51.517,9.81369643 51.721,9.90569643 C51.927,9.99869643 52.133,10.1206964 52.341,10.2726964 C52.558,10.4296964 52.724,10.6286964 52.834,10.8636964 C52.945,11.0996964 52.999,11.3706964 52.999,11.6726964 C52.999,11.9776964 52.936,12.2546964 52.808,12.4986964 C52.681,12.7416964 52.509,12.9366964 52.297,13.0796964 C52.09,13.2196964 51.868,13.3256964 51.629,13.3986964 C51.44975,13.4534464 51.2676875,13.4873839 51.0823906,13.5009308 L50.896,13.5076964 L50.7004082,13.4984778 C50.3106531,13.4616556 49.9297143,13.3148393 49.562,13.0636964 C49.1735556,12.7988075 48.9020494,12.433573 48.7538025,11.9799324 L48.704,11.8056964 L48.683,11.7216964 L49.574,11.3616964 L49.602,11.4726964 C49.6686667,11.7318631 49.7895,11.9542242 49.970287,12.1449881 L50.086,12.2556964 L50.209588,12.3525714 C50.4200278,12.4988909 50.6451667,12.5698631 50.896,12.5706964 C51.213,12.5696964 51.477,12.4876964 51.696,12.3266964 C51.909,12.1656964 52.009,11.9656964 52.011,11.6896964 C52.009,11.3776964 51.906,11.1586964 51.694,10.9946964 C51.5054286,10.8489821 51.2088571,10.7054719 50.8080641,10.5698335 L50.599,10.5026964 C50.057,10.3326964 49.641,10.1106964 49.352,9.82969643 C49.059,9.54669643 48.909,9.17569643 48.91,8.73969643 C48.909,8.28269643 49.096,7.87669643 49.454,7.54469643 C49.814,7.20669643 50.288,7.03869643 50.854,7.0396853 Z M61.605,7.03969171 C62.5,7.03869643 63.264,7.35569643 63.873,7.98369643 C64.482,8.60869643 64.79,9.37969643 64.7890049,10.2736964 C64.7899169,11.0977798 64.5320278,11.8159881 64.0222656,12.4090651 L63.877,12.5676964 L63.7219716,12.7177144 C63.1415625,13.244002 62.43,13.5086133 61.605,13.5077012 C60.705,13.5086964 59.939,13.1936964 59.334,12.5676964 C58.726,11.9456964 58.421,11.1726964 58.4219951,10.2736964 C58.421,9.37469643 58.726,8.60269643 59.334,7.97969643 C59.939,7.35469643 60.705,7.03869643 61.605,7.03969171 Z M99.021,7.03969171 C99.916,7.03869643 100.68,7.35569643 101.289,7.98369643 C101.898,8.60869643 102.206,9.37969643 102.205005,10.2736964 C102.205917,11.0977798 101.948028,11.8159881 101.438266,12.4090651 L101.293,12.5676964 L101.137972,12.7177144 C100.557563,13.244002 99.846,13.5086133 99.021,13.5077012 C98.121,13.5086964 97.355,13.1936964 96.75,12.5676964 C96.142,11.9456964 95.837,11.1726964 95.8379951,10.2736964 C95.837,9.37469643 96.142,8.60269643 96.75,7.97969643 C97.355,7.35469643 98.121,7.03869643 99.021,7.03969171 Z M42.935,7.17369123 C43.876,7.17269643 44.645,7.45969643 45.219,8.03769643 C45.791,8.61169643 46.078,9.36469643 46.0770052,10.2736964 C46.078,11.1816964 45.791,11.9356964 45.219,12.5106964 C44.6928333,13.0396131 44.0028125,13.3248492 43.1666534,13.3679473 L42.935,13.373699 L41,13.373699 L41,7.17369123 L42.935,7.17369123 Z M47.929,7.17369643 L47.929,13.3736964 L46.959,13.3736964 L46.959,7.17369643 L47.929,7.17369643 Z M56.05,7.17368818 C56.58,7.17269643 57.049,7.35269643 57.437,7.70669643 C57.828,8.06069643 58.028,8.52069643 58.0270074,9.05869643 C58.028,9.59669643 57.828,10.0556964 57.437,10.4096964 C57.0975,10.7203214 56.6959844,10.8969621 56.2458516,10.9355988 L56.05,10.9436964 L54.876,10.9436964 L54.876,13.3736964 L53.905,13.3736964 L53.905,7.17368818 L56.05,7.17368818 Z M91.31,7.17369643 L94.094,11.6306964 L94.07,10.7866964 L94.07,7.17369643 L95.042,7.17369643 L95.042,13.3736964 L94.081,13.3736964 L91.162,8.69069643 L91.186,9.53469643 L91.186,13.3736964 L90.216,13.3736964 L90.216,7.17369643 L91.31,7.17369643 Z M66.765,7.17369643 L69.549,11.6306964 L69.525,10.7856964 L69.525,7.17369643 L70.497,7.17369643 L70.497,13.3736964 L69.537,13.3736964 L66.617,8.69069643 L66.641,9.53469643 L66.641,13.3736964 L65.671,13.3736964 L65.671,7.17369643 L66.765,7.17369643 Z M72.641,7.17369643 L72.641,13.3736964 L71.671,13.3736964 L71.671,7.17369643 L72.641,7.17369643 Z M84.835,7.17369643 L84.835,12.4366964 L87.432,12.4366964 L87.432,13.3736964 L83.864,13.3736964 L83.864,7.17369643 L84.835,7.17369643 Z M74.214,7.17369643 L75.802,11.8816964 L77.457,7.17369643 L78.525,7.17369643 L76.274,13.3736964 L75.328,13.3736964 L73.146,7.17369643 L74.214,7.17369643 Z M82.857,7.17369643 L82.857,8.11069643 L80.125,8.11069643 L80.125,9.81369643 L82.589,9.81369643 L82.589,10.7336964 L80.125,10.7336964 L80.125,12.4366964 L82.857,12.4366964 L82.857,13.3736964 L79.154,13.3736964 L79.154,7.17369643 L82.857,7.17369643 Z M99.021,7.97769643 C98.402,7.97869643 97.89,8.18969643 97.462,8.62169643 C97.038,9.05269643 96.826,9.59669643 96.825,10.2736964 C96.826,10.9506964 97.038,11.4946964 97.462,11.9256964 C97.89,12.3576964 98.402,12.5686964 99.021,12.5706964 C99.64,12.5696964 100.153,12.3576964 100.58,11.9256964 C101.005,11.4936964 101.217,10.9506964 101.218,10.2736964 C101.217111,9.67191865 101.049506,9.17601742 100.713781,8.76983909 L100.58,8.62169643 C100.153,8.18969643 99.64,7.97869643 99.021,7.97769643 Z M61.605,7.97769643 C60.986,7.97869643 60.474,8.18969643 60.046,8.62169643 C59.622,9.05269643 59.41,9.59669643 59.409,10.2736964 C59.41,10.9506964 59.622,11.4946964 60.046,11.9256964 C60.474,12.3576964 60.986,12.5686964 61.605,12.5706964 C62.224,12.5696964 62.737,12.3576964 63.164,11.9256964 C63.589,11.4936964 63.801,10.9506964 63.802,10.2736964 C63.8011111,9.67191865 63.6335062,9.17601742 63.2977805,8.76983909 L63.164,8.62169643 C62.737,8.18969643 62.224,7.97869643 61.605,7.97769643 Z M42.935,8.11069643 L41.97,8.11069643 L41.969,12.4366964 L42.935,12.4366964 C43.5341111,12.4358075 44.009963,12.2855853 44.3780069,11.9881368 L44.511,11.8696964 C44.894,11.4946964 45.088,10.9706964 45.089,10.2736964 C45.088,9.58269643 44.894,9.05969643 44.511,8.68169643 C44.1696667,8.34569643 43.7224568,8.15665939 43.1539191,8.11809698 L42.935,8.11069643 Z M56.067,8.11069643 L54.876,8.11069643 L54.875,10.0056964 L56.067,10.0056964 C56.3258571,10.0048393 56.5281429,9.93418622 56.6921195,9.79058856 L56.771,9.71269643 C56.953,9.50869643 57.038,9.29569643 57.039,9.05869643 C57.0381667,8.86119643 56.979,8.6803631 56.8539769,8.50751587 L56.771,8.40469643 L56.6921195,8.32680138 C56.5609382,8.21190926 56.4052391,8.1436345 56.2156718,8.12004257 L56.067,8.11069643 Z M72.19,5.63169643 L73.266,5.63169643 L72.55,6.90469643 L71.672,6.90469643 L72.19,5.63169643 Z" fill="#FFFFFF"></path>
        </g>
    </g>
</svg>
